<?xml version="1.0" standalone="no"?>
<!DOCTYPE svg PUBLIC "-//W3C//DTD SVG 20010904//EN"
 "http://www.w3.org/TR/2001/REC-SVG-20010904/DTD/svg10.dtd">
<svg version="1.0" xmlns="http://www.w3.org/2000/svg"
 width="1020.000000pt" height="1020.000000pt" viewBox="0 0 1020.000000 1020.000000"
 preserveAspectRatio="xMidYMid meet">
<metadata>
Created by potrace 1.14, written by Peter Selinger 2001-2017
</metadata>
<g transform="translate(0.000000,1020.000000) scale(0.100000,-0.100000)"
fill="#000000" stroke="none">
<path d="M2028 7265 c-2 -1 -39 -6 -83 -10 -44 -4 -83 -9 -87 -11 -4 -3 -28
-6 -55 -9 -26 -2 -75 -11 -108 -20 -72 -19 -86 -22 -104 -27 -7 -1 -57 -18
-110 -36 -53 -18 -100 -34 -106 -36 -5 -1 -32 -12 -60 -25 -27 -13 -66 -30
-85 -38 -19 -8 -47 -24 -62 -35 -16 -11 -28 -16 -28 -13 0 3 -13 -3 -29 -14
-16 -12 -32 -21 -35 -21 -3 0 -35 -20 -72 -45 -36 -25 -67 -45 -70 -45 -4 0
-25 -17 -79 -62 -18 -16 -35 -28 -38 -28 -23 0 -275 -255 -352 -356 -11 -14
-26 -32 -32 -39 -7 -8 -13 -17 -13 -20 0 -4 -11 -21 -25 -37 -66 -79 -245
-418 -245 -464 0 -8 -5 -14 -12 -14 -6 0 -9 -3 -6 -6 4 -3 -4 -36 -17 -72 -14
-37 -26 -78 -29 -92 -2 -14 -9 -37 -15 -52 -6 -16 -8 -28 -6 -28 2 0 0 -11 -5
-26 -6 -14 -12 -37 -15 -52 -30 -174 -39 -276 -38 -447 1 -187 17 -341 48
-466 8 -30 17 -66 19 -80 2 -13 6 -26 7 -29 1 -3 3 -9 4 -15 4 -16 4 -15 36
-105 16 -47 31 -89 33 -95 9 -32 77 -177 97 -205 9 -14 18 -29 19 -35 3 -16
84 -150 92 -153 5 -2 8 -10 8 -18 0 -8 3 -14 8 -14 4 0 18 -18 32 -40 14 -22
28 -40 32 -40 5 0 8 -5 8 -11 0 -22 208 -244 322 -345 130 -114 386 -272 563
-346 65 -27 189 -70 203 -71 6 0 12 -3 12 -7 0 -3 8 -6 18 -7 9 0 64 -12 122
-26 58 -14 130 -28 160 -32 30 -4 64 -9 75 -12 39 -9 401 -11 460 -3 33 5 86
12 118 15 32 4 72 11 89 15 16 5 33 9 37 8 3 -1 26 4 51 10 48 13 61 17 180
53 41 13 78 22 83 21 4 -1 7 3 7 9 0 5 5 7 10 4 6 -3 10 -1 10 4 0 6 7 11 16
11 13 0 104 38 144 61 8 4 38 19 65 33 74 38 223 131 275 173 8 6 42 33 75 60
86 68 118 99 621 602 250 250 456 452 458 450 2 -2 7 -26 10 -54 4 -27 9 -63
11 -80 2 -16 7 -61 10 -100 4 -38 8 -88 11 -110 3 -22 7 -60 8 -85 4 -43 11
-117 21 -205 13 -116 17 -154 20 -195 2 -25 4 -45 5 -45 2 0 7 -58 14 -145 3
-36 8 -81 10 -100 13 -100 20 -172 31 -288 8 -94 79 -141 160 -107 46 20 59
52 70 175 3 30 8 78 10 105 3 28 7 68 10 90 2 22 6 68 9 102 3 34 8 81 11 105
3 24 7 66 10 93 3 28 8 73 11 100 3 28 7 70 9 95 2 25 4 45 5 45 1 0 3 24 5
54 2 30 6 73 9 95 10 74 20 170 20 208 1 21 3 38 6 38 3 0 6 17 7 38 1 42 11
147 13 147 0 0 3 25 5 55 4 53 9 104 19 180 4 35 11 98 21 215 8 81 10 93 18
101 3 4 2 14 -3 24 -5 10 -7 19 -5 22 5 4 8 29 20 143 3 33 8 78 11 100 10 89
21 194 29 300 2 22 4 40 5 40 1 0 3 14 4 30 5 61 18 189 21 208 4 16 14 120
17 174 2 24 11 4 13 -29 1 -18 6 -62 10 -98 4 -36 9 -78 10 -95 1 -16 5 -55 9
-85 3 -30 8 -77 11 -105 16 -170 21 -189 62 -219 30 -22 95 -23 127 -2 12 7
278 269 591 582 530 529 622 618 683 660 12 9 35 27 49 40 14 13 32 24 39 24
8 0 14 4 14 9 0 4 20 19 45 32 25 13 45 27 45 30 0 4 15 12 33 20 17 7 34 15
37 18 10 11 202 101 215 101 4 0 21 6 38 14 69 31 230 76 322 90 17 3 39 7 50
9 93 21 432 30 535 14 25 -4 63 -10 85 -13 22 -4 49 -8 60 -10 11 -1 20 -3 20
-4 0 -1 9 -3 20 -5 26 -4 50 -10 105 -26 25 -7 50 -13 55 -15 21 -4 142 -48
183 -65 23 -10 44 -19 47 -19 4 0 65 -32 185 -96 19 -11 40 -25 48 -31 7 -7
17 -13 22 -13 5 0 15 -6 22 -12 26 -25 77 -58 88 -58 6 0 8 -4 5 -10 -3 -5 1
-10 9 -10 9 0 16 -4 16 -10 0 -5 4 -10 10 -10 25 0 265 -238 343 -341 63 -83
87 -119 87 -128 0 -5 4 -11 9 -13 17 -6 129 -224 175 -338 43 -109 101 -313
110 -390 3 -19 5 -35 6 -35 12 0 22 -453 10 -460 -5 -3 -5 -18 0 -34 4 -16 4
-33 0 -37 -5 -5 -11 -31 -14 -59 -5 -43 -10 -74 -20 -120 -1 -5 -6 -26 -10
-45 -4 -19 -11 -44 -15 -55 -4 -11 -22 -65 -40 -120 -42 -129 -127 -304 -208
-427 -35 -54 -69 -103 -76 -110 -7 -7 -26 -31 -42 -53 -49 -66 -234 -246 -332
-323 -51 -40 -95 -72 -98 -72 -4 0 -26 -14 -50 -30 -63 -44 -276 -151 -286
-144 -5 3 -9 0 -9 -5 0 -6 -5 -11 -11 -11 -6 0 -25 -6 -42 -14 -18 -8 -66 -24
-107 -36 -41 -12 -88 -26 -104 -31 -15 -5 -32 -6 -37 -3 -5 3 -9 1 -9 -3 0 -5
-39 -15 -87 -22 -49 -7 -97 -15 -108 -17 -17 -4 -231 -16 -260 -16 -55 2 -205
13 -225 17 -14 3 -43 7 -65 10 -48 7 -80 13 -80 15 0 1 -13 4 -30 6 -60 9
-252 70 -335 106 -150 66 -389 203 -398 229 -2 5 -8 9 -14 9 -5 0 -15 6 -23
13 -7 6 -37 32 -66 57 -30 24 -364 354 -743 732 -380 378 -692 685 -694 683
-4 -4 -6 -19 -16 -140 -4 -38 -9 -83 -12 -99 -4 -24 3 -37 56 -89 33 -33 60
-64 60 -68 0 -4 9 -11 20 -14 11 -3 20 -10 20 -14 0 -12 89 -99 95 -93 3 3 5
-2 5 -12 0 -9 3 -15 8 -13 4 2 23 -15 42 -38 19 -24 45 -49 57 -56 13 -7 25
-20 29 -31 3 -10 9 -18 14 -18 5 0 25 -17 45 -37 96 -101 135 -141 135 -138 0
1 33 -31 73 -72 39 -41 98 -100 130 -131 32 -31 86 -85 120 -120 34 -35 91
-91 126 -125 35 -34 71 -70 80 -81 21 -25 149 -146 203 -191 13 -12 50 -41 83
-65 33 -25 62 -47 65 -50 6 -6 96 -65 150 -98 19 -11 69 -38 110 -58 41 -21
77 -40 80 -43 3 -3 11 -7 18 -9 7 -1 32 -11 55 -22 63 -29 249 -91 255 -85 3
3 10 1 16 -4 11 -9 134 -39 191 -47 17 -3 40 -7 52 -9 89 -20 427 -27 553 -12
146 16 177 21 245 38 22 5 50 12 62 14 12 3 33 9 45 14 13 5 25 9 28 9 4 0 74
19 100 27 10 3 47 18 125 51 45 19 86 34 93 34 7 0 12 5 12 12 0 6 3 8 6 5 4
-3 18 2 32 13 13 11 28 17 33 14 5 -3 9 0 9 5 0 6 5 11 10 11 6 0 28 11 50 25
22 14 40 23 40 20 0 -3 10 3 22 15 12 11 27 20 33 20 7 0 20 9 30 20 10 11 21
17 25 15 4 -3 10 2 14 10 3 8 10 15 16 15 5 0 20 9 32 19 13 10 64 53 114 94
97 81 246 233 296 304 17 24 35 43 40 43 4 0 8 6 8 14 0 8 3 16 8 18 9 4 84
115 94 140 4 10 12 18 18 18 5 0 10 7 10 16 0 9 9 27 20 41 11 14 20 32 20 39
0 8 5 14 10 14 6 0 9 3 8 8 0 4 18 48 41 97 23 50 46 99 51 110 11 25 34 99
31 103 -1 1 5 15 13 30 15 29 60 202 71 272 2 14 6 40 10 59 3 19 7 53 9 77 2
23 6 46 9 50 6 12 0 427 -7 479 -8 54 -14 85 -20 115 -17 76 -27 131 -29 149
-1 12 -4 21 -7 21 -4 0 -7 6 -7 13 0 11 -37 135 -50 167 -3 8 -7 17 -7 20 -2
10 -38 93 -72 166 -19 39 -34 77 -34 83 0 6 -3 11 -8 11 -4 0 -14 15 -21 33
-8 17 -21 38 -28 45 -7 8 -11 18 -8 23 4 5 2 9 -3 9 -5 0 -17 16 -28 35 -10
19 -22 35 -26 35 -5 0 -8 5 -8 10 0 9 -74 116 -89 130 -3 3 -24 28 -46 55
-171 215 -434 423 -701 555 -109 54 -314 135 -369 146 -23 4 -39 8 -120 28
-33 8 -73 17 -90 20 -16 2 -41 7 -54 10 -119 26 -519 27 -651 1 -13 -2 -40 -7
-60 -10 -20 -3 -47 -8 -60 -11 -14 -3 -36 -7 -50 -10 -14 -3 -34 -8 -45 -11
-20 -7 -23 -8 -62 -17 -13 -3 -31 -8 -40 -10 -10 -3 -49 -17 -88 -32 -38 -14
-76 -26 -82 -27 -7 0 -13 -3 -13 -7 0 -4 -6 -7 -12 -7 -14 0 -189 -82 -198
-92 -3 -3 -23 -15 -45 -26 -50 -25 -205 -127 -228 -150 -9 -9 -17 -14 -17 -10
0 3 -11 -6 -25 -21 -14 -15 -25 -23 -25 -19 0 4 -16 -8 -35 -28 -20 -21 -38
-37 -42 -37 -3 0 -62 -56 -131 -125 -69 -69 -129 -125 -133 -125 -5 0 -9 -4
-9 -9 0 -12 -149 -161 -161 -161 -5 0 -9 -4 -9 -8 0 -9 -459 -472 -469 -472
-3 0 -14 -12 -24 -28 -19 -28 -65 -67 -72 -60 -2 2 -6 30 -9 63 -3 33 -9 87
-12 120 -10 102 -13 128 -19 190 -3 33 -7 76 -9 95 -3 19 -7 62 -11 95 -3 33
-8 80 -11 105 -3 25 -7 70 -9 100 -3 30 -7 73 -10 95 -10 74 -28 270 -29 312
-1 18 -3 33 -6 33 -3 0 -6 8 -6 18 -1 60 -17 208 -24 226 -15 39 -46 64 -85
70 -76 11 -121 -34 -131 -129 -3 -33 -7 -76 -9 -95 -3 -19 -7 -64 -10 -100 -3
-36 -8 -81 -10 -100 -2 -19 -7 -62 -10 -95 -4 -33 -8 -76 -11 -95 -2 -19 -7
-64 -10 -100 -3 -36 -7 -83 -10 -105 -2 -22 -6 -65 -9 -95 -2 -30 -7 -66 -9
-80 -3 -14 -8 -59 -12 -100 -3 -41 -8 -88 -10 -105 -1 -16 -6 -61 -10 -100
-11 -123 -13 -139 -18 -185 -3 -25 -8 -67 -10 -95 -3 -27 -8 -75 -12 -105 -6
-58 -8 -76 -19 -210 -7 -77 -12 -115 -15 -115 0 0 -3 -27 -6 -60 -2 -33 -6
-78 -9 -100 -8 -69 -23 -211 -29 -285 -8 -88 -17 -175 -21 -200 -2 -14 -7 -56
-10 -95 -4 -38 -8 -81 -10 -95 -9 -88 -18 -178 -19 -197 -1 -21 -15 -45 -17
-27 -10 102 -18 164 -23 173 -4 5 -2 12 4 16 6 4 7 12 3 18 -7 12 -10 29 -17
114 -2 29 -7 57 -10 62 -4 5 -2 12 4 16 6 4 7 12 3 18 -8 14 -10 21 -16 96 -3
31 -13 64 -24 79 -26 34 -79 52 -118 39 -19 -6 -241 -221 -620 -598 -324 -324
-603 -599 -620 -611 -16 -12 -32 -25 -35 -28 -48 -56 -399 -270 -443 -270 -8
0 -20 -7 -27 -15 -6 -8 -15 -13 -18 -12 -4 1 -20 -3 -37 -10 -55 -21 -70 -26
-75 -28 -3 -1 -36 -11 -75 -23 -61 -18 -117 -33 -190 -48 -11 -2 -38 -6 -60
-9 -22 -2 -51 -7 -65 -10 -21 -4 -230 -18 -265 -17 -41 2 -185 12 -205 15 -14
3 -49 8 -79 12 -30 3 -63 9 -75 12 -12 2 -34 6 -49 9 -16 2 -33 6 -38 10 -5 3
-20 7 -33 10 -36 6 -203 63 -255 86 -99 44 -231 113 -231 120 0 4 -9 8 -19 8
-11 0 -21 3 -23 8 -1 4 -30 25 -63 47 -33 22 -61 43 -63 48 -2 4 -8 7 -13 7
-27 0 -243 205 -337 320 -86 104 -142 183 -142 198 0 6 -4 12 -9 14 -7 3 -91
144 -91 153 0 2 -13 32 -29 67 -63 139 -75 173 -113 308 -7 25 -12 51 -11 58
0 6 -2 12 -6 12 -4 0 -7 8 -8 18 -1 19 -10 85 -17 119 -13 62 -20 173 -20 298
0 166 10 264 40 410 25 121 83 301 107 333 5 6 6 12 3 12 -4 0 1 17 12 38 11
20 32 62 48 92 51 100 59 114 77 134 9 11 17 26 17 33 0 7 5 13 10 13 6 0 10
6 10 14 0 8 6 21 13 28 7 7 34 42 61 77 56 75 69 89 163 184 103 104 153 151
153 144 0 -3 15 8 33 24 44 41 207 149 223 149 8 0 14 4 14 8 0 16 299 151
370 167 8 2 46 13 84 24 65 19 173 41 281 57 67 10 388 10 450 1 28 -5 66 -10
85 -13 19 -3 59 -9 87 -15 29 -6 54 -10 55 -9 4 1 109 -29 128 -37 8 -3 25 -8
38 -10 12 -2 39 -13 58 -23 19 -11 41 -20 49 -20 30 0 325 -152 333 -172 2 -4
8 -8 13 -8 12 0 178 -125 234 -176 48 -43 214 -205 236 -231 9 -10 45 -46 80
-80 35 -34 88 -86 117 -116 28 -31 52 -54 52 -52 0 1 33 -31 73 -72 39 -41 98
-100 130 -131 32 -31 86 -85 120 -120 34 -34 106 -106 160 -160 54 -53 126
-125 160 -160 91 -93 147 -147 158 -150 5 -2 9 -10 9 -17 0 -8 9 -17 20 -20
11 -3 20 -10 20 -14 0 -10 50 -61 60 -61 4 0 7 12 8 28 0 15 1 29 2 32 2 5 2
11 14 140 l7 76 -401 400 c-220 220 -403 398 -405 395 -3 -2 -5 0 -5 6 0 8
-399 411 -463 468 -45 41 -180 145 -206 161 -17 10 -31 22 -31 26 0 4 -4 8
-10 8 -5 0 -37 18 -70 39 -33 22 -91 54 -128 73 -37 18 -70 37 -74 43 -4 5 -8
7 -8 2 0 -4 -19 2 -42 14 -44 23 -247 98 -283 105 -11 2 -58 13 -105 25 -95
23 -118 27 -255 45 -45 5 -382 14 -387 9z"/>
</g>
</svg>
